<?xml version="1.0" encoding="UTF-8" standalone="no"?>
<!-- Created with Inkscape (http://www.inkscape.org/) -->

<svg
   xmlns:dc="http://purl.org/dc/elements/1.1/"
   xmlns:cc="http://creativecommons.org/ns#"
   xmlns:rdf="http://www.w3.org/1999/02/22-rdf-syntax-ns#"
   xmlns:svg="http://www.w3.org/2000/svg"
   xmlns="http://www.w3.org/2000/svg"
   xmlns:sodipodi="http://sodipodi.sourceforge.net/DTD/sodipodi-0.dtd"
   xmlns:inkscape="http://www.inkscape.org/namespaces/inkscape"
   version="1.1"
   id="svg3732"
   width="221.33333"
   height="204"
   viewBox="0 0 221.33333 204"
   sodipodi:docname="logo.svg"
   inkscape:version="0.92.4 (5da689c313, 2019-01-14)">
  <metadata
     id="metadata3738">
    <rdf:RDF>
      <cc:Work
         rdf:about="">
        <dc:format>image/svg+xml</dc:format>
        <dc:type
           rdf:resource="http://purl.org/dc/dcmitype/StillImage" />
        <dc:title />
      </cc:Work>
    </rdf:RDF>
  </metadata>
  <defs
     id="defs3736" />
  <sodipodi:namedview
     pagecolor="#ffffff"
     bordercolor="#666666"
     borderopacity="1"
     objecttolerance="10"
     gridtolerance="10"
     guidetolerance="10"
     inkscape:pageopacity="0"
     inkscape:pageshadow="2"
     inkscape:window-width="1920"
     inkscape:window-height="1051"
     id="namedview3734"
     showgrid="false"
     inkscape:zoom="1.1568627"
     inkscape:cx="5.209037"
     inkscape:cy="102"
     inkscape:window-x="-9"
     inkscape:window-y="-9"
     inkscape:window-maximized="1"
     inkscape:current-layer="svg3732" />
  <path
     style="fill:#ffffff;stroke-width:1.33333337"
     d="M 111.59335,180.66667 C 110.85019,176.98207 110.18474,172.32812 106.63643,146 102.16624,112.83159 100.37951,105.31085 95.524091,99.225748 89.13964,91.224369 43.822421,58.656661 39.101893,58.677328 c -1.339375,0.0059 -6.635227,3.276751 -11.76856,7.268639 -5.133333,3.991888 -9.494621,6.803228 -9.691749,6.247422 -0.51599,-1.454829 12.214698,-23.82557 15.623493,-27.454068 1.579738,-1.681554 5.391353,-4.322158 8.470254,-5.868009 5.304547,-2.663299 23.630807,-9.537979 25.425983,-9.537979 2.496725,0 -0.144235,3.138194 -8.494648,10.094 -5.133333,4.276012 -9.297229,8.40414 -9.253103,9.173618 0.0936,1.632224 28.279302,21.690977 41.113141,29.258749 14.329266,8.449583 17.788536,9.075413 28.644006,5.182108 7.53966,-2.704092 19.1953,-8.732771 31.49595,-16.290732 17.40571,-10.694693 23.79899,-14.902301 25.18987,-16.578212 1.41315,-1.702732 0.0816,-3.611076 -8.52459,-12.217264 -5.60962,-5.609629 -9.86,-10.538664 -9.44525,-10.953407 0.90905,-0.909054 18.29205,4.026124 26.35568,7.482603 8.1236,3.48218 14.04156,8.847359 17.67301,16.022219 3.6556,7.22258 6.82282,17.19923 5.78848,18.233565 -0.39786,0.397863 -4.76242,-2.333752 -9.69902,-6.070255 -8.52538,-6.452824 -9.11852,-6.687901 -11.82358,-4.685897 -5.57488,4.125949 -48.28957,32.251543 -54.51399,35.894865 -3.483,2.038696 -6.68935,4.283752 -7.12523,4.989012 -1.62898,2.635745 -6.60072,37.765165 -8.5574,60.465025 -0.88496,10.26667 -2.05351,20.16667 -2.59677,22 l -0.98775,3.33334 z M 71.038567,135.98929 C 60.107982,128.28828 55.855178,123.55075 49.576409,112.08088 46.371761,106.22673 45.68005,104 47.066165,104 c 3.399089,0 34.954795,34.60379 34.044912,37.33343 -0.260161,0.78049 -4.792791,-1.62438 -10.07251,-5.34414 z m 78.294763,-4.06047 c 0,-0.77248 3.29787,-5.53778 7.3286,-10.58955 10.46736,-13.11891 25.53324,-24.921878 28.29115,-22.163969 2.03884,2.038839 -19.88004,25.827749 -28.39562,30.818199 -6.36106,3.72783 -7.22413,3.95905 -7.22413,1.93532 z"
     id="path3742"
     inkscape:connector-curvature="0" />
</svg>
